<svg viewBox="0 0 96 96" xmlns="http://www.w3.org/2000/svg"><path d="M94.994 44.672C83.679 27.702 70.155 11.999 48 11.999S12.321 27.703 1.006 44.672a6.006 6.006 0 0 0 0 6.656C12.321 68.298 25.845 84.001 48 84.001s35.679-15.704 46.994-32.673a6.006 6.006 0 0 0 0-6.656ZM48 72C35.267 72 25.33 65.21 13.265 48 25.329 30.79 35.267 24 48 24s22.67 6.79 34.735 24C70.671 65.21 60.733 72 48 72Z" fill="#d1c5c5" class="fill-000000"></path><path d="M48 36a12 12 0 1 0 12 12 12.016 12.016 0 0 0-12-12Z" fill="#d1c5c5" class="fill-000000"></path></svg>