<svg viewBox="0 0 24 24" xmlns="http://www.w3.org/2000/svg"><g display="inline"><path d="M5 294.65c-1.645 0-3 1.355-3 3v10c0 1.645 1.355 3 3 3h14c1.645 0 3-1.355 3-3v-10c0-1.645-1.355-3-3-3zm.615 2h12.756l-6.092 5.88a.461.461 0 0 1-.605 0zM20 297.857v9.793c0 .571-.429 1-1 1H5c-.571 0-1-.429-1-1v-9.78l6.281 6.096a2.44 2.44 0 0 0 3.387.004z" style="line-height:normal;font-variant-ligatures:normal;font-variant-position:normal;font-variant-caps:normal;font-variant-numeric:normal;font-variant-alternates:normal;font-variant-east-asian:normal;font-feature-settings:normal;font-variation-settings:normal;text-indent:0;text-align:start;text-decoration-line:none;text-decoration-style:solid;text-decoration-color:#000;text-transform:none;text-orientation:mixed;white-space:normal;shape-padding:0;shape-margin:0;inline-size:0;isolation:auto;mix-blend-mode:normal;solid-color:#000;solid-opacity:1" transform="translate(0 -290.65)" color="#000000" font-style="normal" font-variant="normal" font-weight="400" font-stretch="normal" font-size="medium" font-family="sans-serif" text-decoration="none" letter-spacing="normal" word-spacing="normal" writing-mode="lr-tb" direction="ltr" dominant-baseline="auto" baseline-shift="baseline" text-anchor="start" clip-rule="nonzero" display="inline" overflow="visible" visibility="visible" opacity="1" color-interpolation="sRGB" color-interpolation-filters="linearRGB" vector-effect="none" fill="#606264" fill-opacity="1" fill-rule="nonzero" stroke="none" stroke-linecap="round" stroke-linejoin="round" stroke-miterlimit="4" stroke-dasharray="none" stroke-dashoffset="0" stroke-opacity="1" color-rendering="auto" image-rendering="auto" shape-rendering="auto" text-rendering="auto" enable-background="accumulate" stop-color="#606264" stop-opacity="1" class="fill-000000 stop-color-000000"></path></g></svg>