<svg viewBox="0 0 512 512" xmlns="http://www.w3.org/2000/svg"><path d="M111.1 304c13.4 12.5 33.7 12.5 46.1 0l50.8-50.7 57.38 57.38C271.6 316.9 279.8 320 288 320s16.38-3.125 22.62-9.375l153.4-153.4c12.49-12.49 12.49-32.75 0-45.25-12.5-12.5-32.76-12.5-45.25-.002L288 242.8l-57.4-57.4c-12.5-12.5-32.75-12.5-45.25 0l-74.25 73.4c-11.6 12.4-11.6 32.7 0 45.2zM480 416H64V63.1C64 46.33 49.67 32 32 32S0 46.33 0 63.1V448c0 17.6 14.4 32 32 32h448c17.7 0 32-14.3 32-32s-14.3-32-32-32z" fill="#ffffff" class="fill-000000"></path></svg>